{"title":"ExpliciteArt.Sharon.Lee.Sex.Maniacs.XXX.720p.XXXmegathor.mov","uid":10627777,"size":881027075,"categoryP":"porn","categoryS":"movies","magnet":"?xt=urn:btih:c00786c10f59121e8db7d6fe69c547bc90ca6382&amp;dn=ExpliciteArt.Sharon.Lee.Sex.Maniacs.XXX.720p.XXXmegathor.mov&amp;tr=udp%3A%2F%2Ftracker.openbittorrent.com%3A80&amp;tr=udp%3A%2F%2Fopen.demonii.com%3A1337&amp;tr=udp%3A%2F%2Ftracker.coppersurfer.tk%3A6969&amp;tr=udp%3A%2F%2Fexodus.desync.com%3A6969","seeders":2,"leechers":0,"uploader":"XXXmegathor","files":1,"time":1406256227,"description":"ExpliciteArt.Sharon.Lee.Sex.Maniacs.XXX.720p.XXXmegathor\n\nSCREENIES &lt;a href=&quot;\nhttp://xxxtrapics.com/image/RE&quot; rel=&quot;nofollow&quot; target=&quot;_NEW&quot;&gt;\nhttp://xxxtrapics.com/image/RE&lt;/a&gt;\n\n\nDuration : 23mn 49s\nBit rate mode : Variable\nBit rate : 4 798 Kbps\nWidth : 1 280 pixels\nHeight : 720 pixels\nDisplay aspect ratio : 16:9\nFrame rate mode : Constant\nFrame rate : 25.000 fps\nColor space : YUV\nChroma subsampling : 4:2:0\nBit depth : 8 bits\nScan type : Progressive\nBits/(Pixel*Frame) : 0.208\nStream size : 818 MiB (97%)\nLanguage : English\nEncoded date : UTC 2012-02-23 13:34:53\nTagged date : UTC 2012-02-23 13:34:53\n\nAudio\nID : 2\nFormat : AAC\nFormat/Info : Advanced Audio Codec\nFormat profile : LC\nCodec ID : 40\nDuration : 23mn 49s\nBit rate mode : Variable\nBit rate : 128 Kbps\nMaximum bit rate : 135 Kbps\nChannel(s) : 2 channels\nChannel positions : Front: L R\nSampling rate : 44.1 KHz\nCompression mode : Lossy\nStream size : 21.8 MiB (3%)\nLanguage : English\nEncoded date : UTC 2012-02-23 13:34:53\nTagged date : UTC 2012-02-23 13:34:53\n\n\n","torrent":{"xt":"urn:btih:c00786c10f59121e8db7d6fe69c547bc90ca6382","amp;dn":"ExpliciteArt.Sharon.Lee.Sex.Maniacs.XXX.720p.XXXmegathor.mov","amp;tr":["udp%3A%2F%2Ftracker.openbittorrent.com%3A80","udp%3A%2F%2Fopen.demonii.com%3A1337","udp%3A%2F%2Ftracker.coppersurfer.tk%3A6969","udp%3A%2F%2Fexodus.desync.com%3A6969"],"infoHash":"c00786c10f59121e8db7d6fe69c547bc90ca6382","infoHashBuffer":{"type":"Buffer","data":[192,7,134,193,15,89,18,30,141,183,214,254,105,197,71,188,144,202,99,130]},"announce":[],"urlList":[]}}